<?xml version="1.0" standalone="no"?>
<!DOCTYPE svg PUBLIC "-//W3C//DTD SVG 1.1//EN" "http://www.w3.org/Graphics/SVG/1.1/DTD/svg11.dtd" >
<svg xmlns="http://www.w3.org/2000/svg">
<metadata></metadata>
<defs>
<font id="reznorbroken" horiz-adv-x="2048" >
<font-face units-per-em="2048" ascent="1694" descent="-354" />
<missing-glyph horiz-adv-x="569" />
<glyph />
<glyph />
<glyph unicode="&#xd;" horiz-adv-x="682" />
<glyph unicode=" "  horiz-adv-x="569" />
<glyph unicode="&#x09;" horiz-adv-x="569" />
<glyph unicode="&#xa0;" horiz-adv-x="569" />
<glyph unicode="!" horiz-adv-x="532" d="M129 0v283h274v-283h-274zM129 893v565h274v-565l-79 -518h-115z" />
<glyph unicode="&#x22;" horiz-adv-x="796" d="M141 889v569h193v-569h-193zM463 889v569h192v-569h-192z" />
<glyph unicode="#" horiz-adv-x="1138" d="M59 387v180h199l37 258h-172v181h199l55 387h194l-55 -387h197l55 387h195l-56 -387h172v-181h-198l-37 -258h172v-180h-199l-55 -387h-195l56 387h-197l-55 -387h-195l55 387h-172zM453 567h196l37 258h-197z" />
<glyph unicode="$" horiz-adv-x="1138" d="M51 211l213 160q66 -135 223 -166v411q-217 82 -284 138q-123 96 -123 276q0 168 127 279q117 104 280 108v228h181v-228q109 -4 222.5 -69.5t172.5 -165.5l-189 -148q-86 137 -206 154v-340q205 -63 293 -137q127 -104 126 -291q0 -201 -145 -330q-125 -109 -274 -115 v-241h-181v241q-270 11 -436 236zM354 1044q0 -108 133 -143v287q-133 -25 -133 -144zM668 205q61 20 103 70.5t42 115.5q0 125 -145 166v-352z" />
<glyph unicode="%" d="M236 1047q0 166 85.5 268t245.5 102t246 -102.5t86 -267.5q0 -166 -84 -265q-88 -106 -248 -106t-248 106q-84 98 -83 265zM440 1047q0 -215 127 -216q127 0 127 216q0 215 -127 215t-127 -215zM508 -78l852 1548h178l-852 -1548h-178zM1149 346q0 166 86 268.5 t246 102.5t245.5 -102.5t85.5 -268.5t-83 -264q-88 -106 -248 -107q-160 0 -248 107q-84 98 -84 264zM1354 346q0 -215 127 -215t127 215t-127 215t-127 -215z" />
<glyph unicode="&#x26;" horiz-adv-x="1290" d="M59 397q0 135 97 258q84 106 213 170q-72 115 -72 215q0 150 103.5 245t256.5 95q147 0 237.5 -86t90.5 -221q0 -127 -78 -213q-63 -68 -194 -123l186 -284q33 39 62 116q25 72 24 113h229q0 -63 -38 -174q-51 -150 -138 -236q76 -68 131 -67q35 0 62 6v-199 q-49 -12 -121 -12q-150 0 -236 86q-176 -111 -356 -111q-199 0 -325 111q-133 117 -134 311zM309 408q0 -102 70 -162q61 -53 156 -53q114 -1 200 81l-246 363q-78 -25 -129 -87.5t-51 -141.5zM547 1075q0 -72 65 -153q156 31 156 149q0 51 -31 84t-82 33q-53 0 -80.5 -35 t-27.5 -78z" />
<glyph unicode="'" horiz-adv-x="569" d="M188 889v569h193v-569h-193z" />
<glyph unicode="(" horiz-adv-x="720" d="M100 614q0 276 133 502q123 207 379 404l66 -101q-158 -150 -238 -387q-66 -201 -65 -418q0 -217 65 -417q80 -238 238 -387l-66 -101q-256 197 -379 404q-133 225 -133 501z" />
<glyph unicode=")" horiz-adv-x="720" d="M43 -190q158 150 238 387q66 201 65 417q0 217 -65 418q-80 238 -238 387l66 101q256 -197 378 -404q133 -225 134 -502q0 -276 -134 -501q-122 -207 -378 -404z" />
<glyph unicode="*" horiz-adv-x="720" d="M45 1176l45 139l193 -62v205h153v-205l191 62l49 -139l-193 -62l123 -170l-123 -88l-123 176l-122 -176l-119 88l119 170z" />
<glyph unicode="+" horiz-adv-x="1228" d="M96 416v205h416v415h205v-415h416v-205h-416v-416h-205v416h-416z" />
<glyph unicode="," horiz-adv-x="569" d="M147 0v283h275v-338q0 -197 -260 -232v125q104 10 104 99v63h-119z" />
<glyph unicode="-" horiz-adv-x="681" d="M86 483v230h510v-230h-510z" />
<glyph unicode="." horiz-adv-x="569" d="M147 0v283h275v-283h-275z" />
<glyph unicode="/" horiz-adv-x="948" d="M16 -37l693 1532h223l-692 -1532h-224z" />
<glyph unicode="0" horiz-adv-x="1138" d="M61 696q0 342 123 527q131 194 385 194t385 -194q123 -184 123 -527q0 -342 -123 -526q-131 -195 -385 -195t-385 195q-123 184 -123 526zM336 696q0 -492 233 -491q233 0 234 491q-1 492 -234 492t-233 -492z" />
<glyph unicode="1" horiz-adv-x="1138" d="M190 969v168h41q172 0 252 69q61 55 90 187h205v-1393h-250v831q0 84 -22.5 111t-93.5 27h-222z" />
<glyph unicode="2" horiz-adv-x="1138" d="M98 0v217q217 131 394 307q242 244 241 439q0 213 -186 213q-199 -1 -199 -316l-250 19q0 250 113 389q123 150 367 149q199 0 320.5 -117.5t121.5 -314.5q0 -168 -96 -315q-74 -113 -226 -242l-260 -211h602v-217h-942z" />
<glyph unicode="3" horiz-adv-x="1138" d="M76 455h262q0 -250 229 -250q96 0 152.5 59.5t56.5 155.5q0 207 -205 207h-100v217h100q182 0 183 155q0 188 -185 189q-176 0 -196 -240l-273 58q70 412 490 411q184 0 305 -92q133 -102 133 -281q0 -233 -229 -292v-4q262 -61 264 -345q0 -205 -152 -321 q-139 -106 -352 -107q-483 0 -483 480z" />
<glyph unicode="4" horiz-adv-x="1138" d="M49 319v193l610 881h256v-856h175v-218h-175v-319h-249v319h-617zM311 537h355v561h-4z" />
<glyph unicode="5" horiz-adv-x="1138" d="M68 385l286 23q2 -90 56.5 -152.5t144.5 -62.5q117 0 178 88q51 78 51 198q0 262 -233 262q-139 0 -199 -133l-237 19l98 766h778l-26 -242h-539l-43 -291q111 98 250 98q213 0 330 -141q109 -129 108 -336q0 -233 -145.5 -369.5t-372.5 -136.5q-207 0 -336 101 q-141 109 -149 309z" />
<glyph unicode="6" horiz-adv-x="1138" d="M88 662q0 342 129 542q137 213 391 213q369 0 428 -354l-264 -35q-12 160 -166 160q-133 0 -196 -150q-47 -113 -48 -274h5q88 129 272 129q193 0 302.5 -126t109.5 -333q0 -197 -130 -328t-335 -131q-498 0 -498 687zM383 434q0 -229 203 -229t202 229q1 230 -202 230 t-203 -230z" />
<glyph unicode="7" horiz-adv-x="1138" d="M121 1139v254h919v-230q-160 -154 -301 -487q-147 -352 -172 -676h-336q76 596 510 1139h-620z" />
<glyph unicode="8" horiz-adv-x="1138" d="M51 403q0 217 213 324q-80 41 -127 121q-45 74 -45 156q0 215 148 321q126 92 329 92t330 -92q147 -106 148 -321q0 -82 -46 -156q-47 -80 -127 -121q213 -106 213 -324q0 -213 -167 -329q-143 -98 -351 -99q-207 0 -350 99q-168 117 -168 329zM338 403q0 -199 231 -198 q231 0 232 198q0 199 -232 199q-231 0 -231 -199zM367 1004q0 -184 202 -185q203 0 203 185q0 184 -203 184q-202 0 -202 -184z" />
<glyph unicode="9" horiz-adv-x="1138" d="M88 958q0 197 130 328t335 131q498 0 498 -686q0 -342 -129 -543q-137 -213 -392 -213q-369 1 -428 355l265 35q14 -160 165 -160q133 0 197 151q47 111 47 273h-4q-88 -129 -272 -129q-193 0 -302.5 126t-109.5 332zM350 958q0 -229 203 -229t203 229t-203 230 q-203 0 -203 -230z" />
<glyph unicode=":" horiz-adv-x="569" d="M147 0v283h275v-283h-275zM147 766v283h275v-283h-275z" />
<glyph unicode=";" horiz-adv-x="569" d="M147 0v283h275v-338q0 -197 -260 -232v125q104 10 104 99v63h-119zM147 766v283h275v-283h-275z" />
<glyph unicode="&#x3c;" />
<glyph unicode="=" />
<glyph unicode="&#x3e;" />
<glyph unicode="?" horiz-adv-x="1175" d="M80 1010q8 225 145 355t363 130q203 0 342 -115q145 -123 145 -319q0 -143 -74 -242q-53 -68 -192 -166q-106 -74 -107 -202v-76h-229v117q0 131 25 194q27 76 110 129q92 59 123 92q57 61 57 144q0 88 -61 145t-158 57q-227 0 -239 -278zM451 0v283h274v-283h-274z" />
<glyph unicode="@" horiz-adv-x="1638" d="M78 731q0 322 227 543t549 221q287 0 492 -174q215 -180 215 -455q0 -270 -191 -450q-158 -147 -311 -148q-117 0 -123 127h-4q-119 -127 -240 -127q-145 0 -231 105q-80 96 -80 241q0 225 129 380t313 155q182 0 252 -148l35 119h170l-141 -542q-16 -63 -17 -86 q0 -43 41 -43q88 0 165 113.5t77 271.5q0 233 -162 372q-154 133 -391 133q-262 0 -428 -176t-166 -438q0 -264 172 -435t432 -171q301 0 469 184h162q-221 -340 -639 -340q-338 0 -557 216t-219 552zM586 606q0 -72 34.5 -114.5t96.5 -42.5q123 0 209 116q80 106 80 223 q0 84 -41 132.5t-109 48.5q-117 0 -193.5 -111t-76.5 -252z" />
<glyph unicode="A" horiz-adv-x="1099" d="M49 301q0 262 316 324l104 20q104 20 270 62v30q0 131 -196 131q-109 0 -151 -34.5t-42 -120.5l-250 10q0 170 136 260q119 78 307 78q203 0 307 -60q139 -79 139 -280v-547q0 -113 39 -174h-264q-25 37 -25 94q-147 -119 -338 -119q-152 0 -252 89.5t-100 236.5z M311 309q0 -57 46 -93t116 -36q100 0 176 45q90 54 90 146v147q-41 -20 -118 -37l-138 -28q-86 -18 -121 -43q-51 -33 -51 -101z" />
<glyph unicode="B" horiz-adv-x="1175" d="M123 0v1458h250v-510q123 113 295 113q197 0 323.5 -158t126.5 -385t-127 -385t-323 -158q-186 0 -291 125h-4v-100h-250zM365 518q0 -131 53 -213q63 -100 192 -100t195 100q51 82 51 213t-51 213q-66 100 -195 100t-192 -100q-53 -82 -53 -213z" />
<glyph unicode="C" horiz-adv-x="1062" d="M57 518q0 238 142.5 390.5t388.5 152.5q317 0 438 -295l-219 -100q-25 76 -85 120.5t-134 44.5q-127 0 -201 -96q-68 -88 -68 -217q0 -131 62 -217q70 -96 192 -96q170 0 252 201l213 -113q-145 -317 -469 -318q-233 0 -374 156q-137 150 -138 387z" />
<glyph unicode="D" horiz-adv-x="1175" d="M57 518q0 227 127 385t324 158q172 0 295 -113v510h250v-1458h-250v100h-4q-104 -125 -291 -125q-197 0 -324 158t-127 385zM319 518q0 -131 54 -213q63 -100 192 -100t195 100q51 82 51 213t-51 213q-66 100 -195 100t-192 -100q-53 -82 -54 -213z" />
<glyph unicode="E" horiz-adv-x="1138" d="M57 518q0 238 142.5 390.5t388.5 152.5q497 0 497 -602h-766q2 -111 87 -185q75 -69 179 -69h3q195 0 299 147l211 -123q-166 -254 -510 -254q-246 0 -391 156q-139 150 -140 387zM319 651h504q0 59 -55 123q-70 82 -180 82q-104 0 -176.5 -58.5t-92.5 -146.5z" />
<glyph unicode="F" horiz-adv-x="645" d="M10 856v180h152v164q0 258 305 258q86 0 168 -6v-217q-39 6 -82 6q-141 0 -141 -131v-74h223v-180h-223v-856h-250v856h-152z" />
<glyph unicode="G" horiz-adv-x="1175" d="M57 557q0 229 127 366.5t324 137.5q186 0 291 -125h4v100h250v-1013q0 -207 -152 -295q-125 -72 -387 -72q-221 0 -334 113q-88 88 -88 208h262q33 -129 213 -129q236 0 236 209v111q-106 -115 -295 -115q-197 0 -324 137.5t-127 366.5zM319 557q0 -102 54 -178 q66 -96 192 -96q127 0 195 96q51 76 51 178t-51 178q-68 96 -195 96t-192 -96q-53 -76 -54 -178z" />
<glyph unicode="H" horiz-adv-x="1175" d="M123 0v1458h250v-524h4q98 127 297 127q160 0 256 -74q123 -96 123 -301v-686h-250v614q0 205 -185 205q-129 0 -192 -96q-53 -76 -53 -191v-532h-250z" />
<glyph unicode="I" horiz-adv-x="495" d="M123 0v1036h250v-1036h-250zM123 1204v254h250v-254h-250z" />
<glyph unicode="J" horiz-adv-x="495" d="M-6 -115h10q119 0 119 86v1065h250v-1149q0 -231 -346 -231h-33v229zM123 1204v254h250v-254h-250z" />
<glyph unicode="K" horiz-adv-x="1099" d="M123 0v1458h250v-811l393 389h324l-402 -403l440 -633h-305l-309 465l-141 -139v-326h-250z" />
<glyph unicode="L" horiz-adv-x="495" d="M123 0v1458h250v-1458h-250z" />
<glyph unicode="M" horiz-adv-x="1781" d="M123 0v1036h250v-102q123 127 299 127q236 0 305 -156q117 156 319 156q362 0 363 -332v-729h-250v629q0 202 -168 202h-2q-100 0 -161.5 -83.5t-61.5 -200.5v-547h-250v629q0 202 -172 202h-2q-98 0 -158.5 -84.5t-60.5 -199.5v-547h-250z" />
<glyph unicode="N" horiz-adv-x="1138" d="M123 0h250v633q0 186 172 186q96 0 155 -65q66 -72 66 -207v-547h250v1036h-250v-102h-4q-104 127 -283 127q-356 0 -356 -352v-709z" />
<glyph unicode="O" horiz-adv-x="1175" d="M57 518q0 238 142.5 390.5t388.5 152.5t391 -156q139 -150 139 -387q0 -238 -139 -387q-145 -156 -391 -156t-391 156q-139 150 -140 387zM319 518q0 -129 68 -217q74 -96 201 -96t200 96q68 88 68 217t-68 217q-73 96 -200 96t-201 -96q-68 -88 -68 -217z" />
<glyph unicode="P" horiz-adv-x="1175" d="M123 -332v1368h250v-88h4q123 113 295 113q195 0 320.5 -158t125.5 -385t-127 -385t-323 -158q-184 0 -295 125v-432h-250zM365 518q0 -131 53 -213q63 -100 192 -100t195 100q51 82 51 213t-51 213q-66 100 -195 100t-192 -100q-53 -82 -53 -213z" />
<glyph unicode="Q" horiz-adv-x="1175" d="M57 518q0 227 126 385t321 158q100 0 170 -29q53 -23 125 -84h4v88h250v-1368h-250v432h-4q-96 -125 -287 -125q-199 0 -328 160q-127 154 -127 383zM319 518q0 -131 54 -213q63 -100 192 -100t195 100q51 82 51 213t-51 213q-66 100 -195 100t-192 -100 q-53 -82 -54 -213z" />
<glyph unicode="R" horiz-adv-x="720" d="M123 0v1036h250v-143h4q84 168 319 168v-254q-141 0 -225 -68q-98 -80 -98 -237v-502h-250z" />
<glyph unicode="S" horiz-adv-x="1024" d="M31 164l188 145q88 -129 299 -129q84 0 146 39q55 37 55 82q0 68 -166 100q-248 51 -309 78q-166 76 -166 246q0 168 133 256q121 80 326 80q276 -1 428 -189l-174 -163q-66 145 -261 147h-7q-183 0 -183 -100q0 -70 170 -103q256 -47 313 -73q170 -74 170 -242 q0 -176 -141 -275q-127 -88 -320 -88q-336 0 -501 189z" />
<glyph unicode="T" horiz-adv-x="645" d="M10 856v180h152v367h250v-367h223v-180h-223v-524q0 -68 20 -94q25 -33 92 -33l111 12v-205q-114 -24 -193 -24h-6q-274 0 -274 250v618h-152z" />
<glyph unicode="U" horiz-adv-x="1175" d="M123 350v686h250v-614q0 -205 184 -205q129 0 195 84q51 70 51 178v557h250v-1036h-250v102h-4q-98 -127 -297 -127q-160 0 -256 74q-123 96 -123 301z" />
<glyph unicode="V" horiz-adv-x="950" d="M2 1036h264l207 -717h4l207 717h264l-342 -1036h-262z" />
<glyph unicode="W" horiz-adv-x="1519" d="M16 1036h258l175 -704h4l194 704h225l195 -704h4l174 704h258l-299 -1036h-246l-196 694h-4l-197 -694h-246z" />
<glyph unicode="X" horiz-adv-x="987" d="M-10 0l358 559l-311 477h291l166 -254l165 254h291l-311 -477l358 -559h-299l-204 328l-205 -328h-299z" />
<glyph unicode="Y" horiz-adv-x="948" d="M0 1036h268l224 -753h4l194 753h258l-340 -1128q-43 -141 -114.5 -196.5t-208.5 -55.5q-70 0 -150 14v224q49 -8 98 -9q59 0 87 18.5t53 69.5z" />
<glyph unicode="Z" horiz-adv-x="985" d="M53 0v193l549 626h-491v217h821v-192l-543 -627h543v-217h-879z" />
<glyph unicode="[" horiz-adv-x="720" d="M137 -229v1687h541v-205h-279v-1278h279v-204h-541z" />
<glyph unicode="\" horiz-adv-x="948" d="M16 1495h224l692 -1532h-223z" />
<glyph unicode="]" horiz-adv-x="720" d="M43 -25h279v1278h-279v205h541v-1687h-541v204z" />
<glyph unicode="^" />
<glyph unicode="_" horiz-adv-x="1024" d="M0 -154h1024v-102h-1024v102z" />
<glyph unicode="`" />
<glyph unicode="a" horiz-adv-x="1099" d="M49 301q0 262 316 324l104 20q104 20 270 62v30q0 131 -196 131q-109 0 -151 -34.5t-42 -120.5l-250 10q0 170 136 260q119 78 307 78q203 0 307 -60q139 -79 139 -280v-547q0 -113 39 -174h-264q-25 37 -25 94q-147 -119 -338 -119q-152 0 -252 89.5t-100 236.5z M311 309q0 -57 46 -93t116 -36q100 0 176 45q90 54 90 146v147q-41 -20 -118 -37l-138 -28q-86 -18 -121 -43q-51 -33 -51 -101z" />
<glyph unicode="b" horiz-adv-x="1175" d="M123 0v1458h250v-510q123 113 295 113q197 0 323.5 -158t126.5 -385t-127 -385t-323 -158q-186 0 -291 125h-4v-100h-250zM365 518q0 -131 53 -213q63 -100 192 -100t195 100q51 82 51 213t-51 213q-66 100 -195 100t-192 -100q-53 -82 -53 -213z" />
<glyph unicode="c" horiz-adv-x="1062" d="M57 518q0 238 142.5 390.5t388.5 152.5q317 0 438 -295l-219 -100q-25 76 -85 120.5t-134 44.5q-127 0 -201 -96q-68 -88 -68 -217q0 -131 62 -217q70 -96 192 -96q170 0 252 201l213 -113q-145 -317 -469 -318q-233 0 -374 156q-137 150 -138 387z" />
<glyph unicode="d" horiz-adv-x="1175" d="M57 518q0 227 127 385t324 158q172 0 295 -113v510h250v-1458h-250v100h-4q-104 -125 -291 -125q-197 0 -324 158t-127 385zM319 518q0 -131 54 -213q63 -100 192 -100t195 100q51 82 51 213t-51 213q-66 100 -195 100t-192 -100q-53 -82 -54 -213z" />
<glyph unicode="e" horiz-adv-x="1138" d="M57 518q0 238 142.5 390.5t388.5 152.5q497 0 497 -602h-766q2 -111 87 -185q75 -69 179 -69h3q195 0 299 147l211 -123q-166 -254 -510 -254q-246 0 -391 156q-139 150 -140 387zM319 651h504q0 59 -55 123q-70 82 -180 82q-104 0 -176.5 -58.5t-92.5 -146.5z" />
<glyph unicode="f" horiz-adv-x="645" d="M10 856v180h152v164q0 258 305 258q86 0 168 -6v-217q-39 6 -82 6q-141 0 -141 -131v-74h223v-180h-223v-856h-250v856h-152z" />
<glyph unicode="g" horiz-adv-x="1175" d="M57 557q0 229 127 366.5t324 137.5q186 0 291 -125h4v100h250v-1013q0 -207 -152 -295q-125 -72 -387 -72q-221 0 -334 113q-88 88 -88 208h262q33 -129 213 -129q236 0 236 209v111q-106 -115 -295 -115q-197 0 -324 137.5t-127 366.5zM319 557q0 -102 54 -178 q66 -96 192 -96q127 0 195 96q51 76 51 178t-51 178q-68 96 -195 96t-192 -96q-53 -76 -54 -178z" />
<glyph unicode="h" horiz-adv-x="1175" d="M123 0v1458h250v-524h4q98 127 297 127q160 0 256 -74q123 -96 123 -301v-686h-250v614q0 205 -185 205q-129 0 -192 -96q-53 -76 -53 -191v-532h-250z" />
<glyph unicode="i" horiz-adv-x="495" d="M123 0v1036h250v-1036h-250zM123 1204v254h250v-254h-250z" />
<glyph unicode="j" horiz-adv-x="495" d="M-6 -115h10q119 0 119 86v1065h250v-1149q0 -231 -346 -231h-33v229zM123 1204v254h250v-254h-250z" />
<glyph unicode="k" horiz-adv-x="1099" d="M123 0v1458h250v-811l393 389h324l-402 -403l440 -633h-305l-309 465l-141 -139v-326h-250z" />
<glyph unicode="l" horiz-adv-x="495" d="M123 0v1458h250v-1458h-250z" />
<glyph unicode="m" horiz-adv-x="1781" d="M123 0v1036h250v-102q123 127 299 127q236 0 305 -156q117 156 319 156q362 0 363 -332v-729h-250v629q0 202 -168 202h-2q-100 0 -161.5 -83.5t-61.5 -200.5v-547h-250v629q0 202 -172 202h-2q-98 0 -158.5 -84.5t-60.5 -199.5v-547h-250z" />
<glyph unicode="n" horiz-adv-x="1138" d="M123 0v1036h250v-102h4q104 127 282 127q356 0 357 -352v-709h-250v633q0 186 -172 186q-96 0 -156 -65q-66 -72 -65 -207v-547h-250z" />
<glyph unicode="o" horiz-adv-x="1175" d="M57 518q0 238 142.5 390.5t388.5 152.5t391 -156q139 -150 139 -387q0 -238 -139 -387q-145 -156 -391 -156t-391 156q-139 150 -140 387zM319 518q0 -129 68 -217q74 -96 201 -96t200 96q68 88 68 217t-68 217q-73 96 -200 96t-201 -96q-68 -88 -68 -217z" />
<glyph unicode="p" horiz-adv-x="1175" d="M123 -332v1368h250v-88h4q123 113 295 113q195 0 320.5 -158t125.5 -385t-127 -385t-323 -158q-184 0 -295 125v-432h-250zM365 518q0 -131 53 -213q63 -100 192 -100t195 100q51 82 51 213t-51 213q-66 100 -195 100t-192 -100q-53 -82 -53 -213z" />
<glyph unicode="q" horiz-adv-x="1175" d="M57 518q0 227 126 385t321 158q100 0 170 -29q53 -23 125 -84h4v88h250v-1368h-250v432h-4q-96 -125 -287 -125q-199 0 -328 160q-127 154 -127 383zM319 518q0 -131 54 -213q63 -100 192 -100t195 100q51 82 51 213t-51 213q-66 100 -195 100t-192 -100 q-53 -82 -54 -213z" />
<glyph unicode="r" horiz-adv-x="720" d="M123 0v1036h250v-143h4q84 168 319 168v-254q-141 0 -225 -68q-98 -80 -98 -237v-502h-250z" />
<glyph unicode="s" horiz-adv-x="1024" d="M31 164l188 145q88 -129 299 -129q84 0 146 39q55 37 55 82q0 68 -166 100q-248 51 -309 78q-166 76 -166 246q0 168 133 256q121 80 326 80q276 -1 428 -189l-174 -163q-66 145 -261 147h-7q-183 0 -183 -100q0 -70 170 -103q256 -47 313 -73q170 -74 170 -242 q0 -176 -141 -275q-127 -88 -320 -88q-336 0 -501 189z" />
<glyph unicode="t" horiz-adv-x="645" d="M10 856v180h152v367h250v-367h223v-180h-223v-524q0 -68 20 -94q25 -33 92 -33l111 12v-205q-114 -24 -193 -24h-6q-274 0 -274 250v618h-152z" />
<glyph unicode="u" horiz-adv-x="1175" d="M123 350v686h250v-614q0 -205 184 -205q129 0 195 84q51 70 51 178v557h250v-1036h-250v102h-4q-98 -127 -297 -127q-160 0 -256 74q-123 96 -123 301z" />
<glyph unicode="v" horiz-adv-x="950" d="M2 1036h264l207 -717h4l207 717h264l-342 -1036h-262z" />
<glyph unicode="w" horiz-adv-x="1519" d="M16 1036h258l175 -704h4l194 704h225l195 -704h4l174 704h258l-299 -1036h-246l-196 694h-4l-197 -694h-246z" />
<glyph unicode="x" horiz-adv-x="987" d="M-10 0l358 559l-311 477h291l166 -254l165 254h291l-311 -477l358 -559h-299l-204 328l-205 -328h-299z" />
<glyph unicode="y" horiz-adv-x="948" d="M0 1036h268l224 -753h4l194 753h258l-340 -1128q-43 -141 -114.5 -196.5t-208.5 -55.5q-70 0 -150 14v224q49 -8 98 -9q59 0 87 18.5t53 69.5z" />
<glyph unicode="z" horiz-adv-x="985" d="M53 0v193l549 626h-491v217h821v-192l-543 -627h543v-217h-879z" />
<glyph unicode="{" />
<glyph unicode="|" />
<glyph unicode="}" />
<glyph unicode="~" />
<glyph unicode="&#xa0;" />
<glyph unicode="&#xa1;" />
<glyph unicode="&#xa2;" />
<glyph unicode="&#xa3;" />
<glyph unicode="&#xa4;" />
<glyph unicode="&#xa5;" />
<glyph unicode="&#xa6;" />
<glyph unicode="&#xa7;" />
<glyph unicode="&#xa8;" />
<glyph unicode="&#xa9;" />
<glyph unicode="&#xaa;" />
<glyph unicode="&#xab;" />
<glyph unicode="&#xac;" />
<glyph unicode="&#xad;" />
<glyph unicode="&#xae;" />
<glyph unicode="&#xaf;" />
<glyph unicode="&#xb0;" />
<glyph unicode="&#xb1;" />
<glyph unicode="&#xb2;" />
<glyph unicode="&#xb3;" />
<glyph unicode="&#xb4;" />
<glyph unicode="&#xb5;" />
<glyph unicode="&#xb6;" />
<glyph unicode="&#xb8;" />
<glyph unicode="&#xb9;" />
<glyph unicode="&#xba;" />
<glyph unicode="&#xbb;" />
<glyph unicode="&#xbc;" />
<glyph unicode="&#xbd;" />
<glyph unicode="&#xbe;" />
<glyph unicode="&#xbf;" />
<glyph unicode="&#xc0;" />
<glyph unicode="&#xc1;" />
<glyph unicode="&#xc2;" />
<glyph unicode="&#xc3;" />
<glyph unicode="&#xc4;" />
<glyph unicode="&#xc5;" />
<glyph unicode="&#xc6;" />
<glyph unicode="&#xc7;" />
<glyph unicode="&#xc8;" />
<glyph unicode="&#xc9;" />
<glyph unicode="&#xca;" />
<glyph unicode="&#xcb;" />
<glyph unicode="&#xcc;" />
<glyph unicode="&#xcd;" />
<glyph unicode="&#xce;" />
<glyph unicode="&#xcf;" />
<glyph unicode="&#xd0;" />
<glyph unicode="&#xd1;" />
<glyph unicode="&#xd2;" />
<glyph unicode="&#xd3;" />
<glyph unicode="&#xd4;" />
<glyph unicode="&#xd5;" />
<glyph unicode="&#xd6;" />
<glyph unicode="&#xd7;" />
<glyph unicode="&#xd8;" />
<glyph unicode="&#xd9;" />
<glyph unicode="&#xda;" />
<glyph unicode="&#xdb;" />
<glyph unicode="&#xdc;" />
<glyph unicode="&#xdd;" />
<glyph unicode="&#xde;" />
<glyph unicode="&#xdf;" />
<glyph unicode="&#xe0;" />
<glyph unicode="&#xe1;" />
<glyph unicode="&#xe2;" />
<glyph unicode="&#xe3;" />
<glyph unicode="&#xe4;" />
<glyph unicode="&#xe5;" />
<glyph unicode="&#xe6;" />
<glyph unicode="&#xe7;" />
<glyph unicode="&#xe8;" />
<glyph unicode="&#xe9;" />
<glyph unicode="&#xea;" />
<glyph unicode="&#xeb;" />
<glyph unicode="&#xec;" />
<glyph unicode="&#xed;" />
<glyph unicode="&#xee;" />
<glyph unicode="&#xef;" />
<glyph unicode="&#xf0;" />
<glyph unicode="&#xf1;" />
<glyph unicode="&#xf2;" />
<glyph unicode="&#xf3;" />
<glyph unicode="&#xf4;" />
<glyph unicode="&#xf5;" />
<glyph unicode="&#xf6;" />
<glyph unicode="&#xf7;" />
<glyph unicode="&#xf8;" />
<glyph unicode="&#xf9;" />
<glyph unicode="&#xfa;" />
<glyph unicode="&#xfb;" />
<glyph unicode="&#xfc;" />
<glyph unicode="&#xfd;" />
<glyph unicode="&#xfe;" />
<glyph unicode="&#xff;" />
<glyph unicode="&#x152;" />
<glyph unicode="&#x153;" />
<glyph unicode="&#x178;" />
<glyph unicode="&#x2c6;" />
<glyph unicode="&#x2dc;" />
<glyph unicode="&#x2000;" horiz-adv-x="822" />
<glyph unicode="&#x2001;" horiz-adv-x="1645" />
<glyph unicode="&#x2002;" horiz-adv-x="822" />
<glyph unicode="&#x2003;" horiz-adv-x="1645" />
<glyph unicode="&#x2004;" horiz-adv-x="548" />
<glyph unicode="&#x2005;" horiz-adv-x="411" />
<glyph unicode="&#x2006;" horiz-adv-x="274" />
<glyph unicode="&#x2007;" horiz-adv-x="274" />
<glyph unicode="&#x2008;" horiz-adv-x="205" />
<glyph unicode="&#x2009;" horiz-adv-x="329" />
<glyph unicode="&#x200a;" horiz-adv-x="91" />
<glyph unicode="&#x2010;" horiz-adv-x="681" d="M86 483v230h510v-230h-510z" />
<glyph unicode="&#x2011;" horiz-adv-x="681" d="M86 483v230h510v-230h-510z" />
<glyph unicode="&#x2012;" horiz-adv-x="681" d="M86 483v230h510v-230h-510z" />
<glyph unicode="&#x2013;" />
<glyph unicode="&#x2014;" />
<glyph unicode="&#x2018;" />
<glyph unicode="&#x2019;" />
<glyph unicode="&#x201a;" />
<glyph unicode="&#x201c;" />
<glyph unicode="&#x201d;" />
<glyph unicode="&#x201e;" />
<glyph unicode="&#x2022;" />
<glyph unicode="&#x2026;" />
<glyph unicode="&#x202f;" horiz-adv-x="329" />
<glyph unicode="&#x2039;" />
<glyph unicode="&#x203a;" />
<glyph unicode="&#x205f;" horiz-adv-x="411" />
<glyph unicode="&#x2122;" />
<glyph unicode="&#xe000;" horiz-adv-x="1035" d="M0 0v1035h1035v-1035h-1035z" />
<glyph unicode="&#xfb01;" horiz-adv-x="1140" d="M10 856v180h152v164q0 258 305 258q86 0 168 -6v-217q-39 6 -82 6q-141 0 -141 -131v-74h223v-180h-223v-856h-250v856h-152zM768 0v1036h250v-1036h-250zM768 1204v254h250v-254h-250z" />
<glyph unicode="&#xfb02;" horiz-adv-x="1140" d="M10 856v180h152v164q0 258 305 258q86 0 168 -6v-217q-39 6 -82 6q-141 0 -141 -131v-74h223v-180h-223v-856h-250v856h-152zM768 0v1458h250v-1458h-250z" />
<glyph unicode="&#xfb03;" horiz-adv-x="1785" d="M10 856v180h152v164q0 258 305 258q86 0 168 -6v-217q-39 6 -82 6q-141 0 -141 -131v-74h223v-180h-223v-856h-250v856h-152zM655 856v180h152v164q0 258 305 258q86 0 168 -6v-217q-39 6 -82 6q-141 0 -141 -131v-74h223v-180h-223v-856h-250v856h-152zM1413 0v1036h250 v-1036h-250zM1413 1204v254h250v-254h-250z" />
<glyph unicode="&#xfb04;" horiz-adv-x="1785" d="M10 856v180h152v164q0 258 305 258q86 0 168 -6v-217q-39 6 -82 6q-141 0 -141 -131v-74h223v-180h-223v-856h-250v856h-152zM655 856v180h152v164q0 258 305 258q86 0 168 -6v-217q-39 6 -82 6q-141 0 -141 -131v-74h223v-180h-223v-856h-250v856h-152zM1413 0v1458h250 v-1458h-250z" />
</font>
</defs>
</svg>
